<svg width="60" height="60" viewBox="0 0 60 60" fill="none" xmlns="http://www.w3.org/2000/svg">
<path d="M0 30C0 13.4315 13.4315 0 30 0C46.5686 0 60 13.4315 60 30C60 46.5686 46.5686 60 30 60C13.4315 60 0 46.5686 0 30Z" fill="#0CCEAD"/>
<path d="M30.0132 11.5526C36.0285 11.5526 36.7407 11.5789 39.1063 11.6844C41.3049 11.7811 42.4921 12.1503 43.2837 12.458C44.3301 12.8624 45.0864 13.3547 45.8691 14.137C46.6606 14.9282 47.1442 15.6755 47.5576 16.7215C47.8654 17.5127 48.2348 18.7083 48.3315 20.8971C48.4371 23.2707 48.4635 23.9827 48.4635 29.9868C48.4635 35.9908 48.4371 36.7118 48.3315 39.0765C48.2348 41.2742 47.8654 42.4609 47.5576 43.252C47.1531 44.2981 46.6607 45.0541 45.878 45.8365C45.0864 46.6278 44.339 47.1112 43.2924 47.5243C42.501 47.8321 41.3049 48.2013 39.1152 48.298C36.7407 48.4035 36.0285 48.4299 30.022 48.4299C24.0156 48.4299 23.2944 48.4035 20.9288 48.298C18.7302 48.2013 17.5429 47.8321 16.7515 47.5243C15.705 47.1201 14.9487 46.6278 14.166 45.8454C13.3745 45.0541 12.8908 44.307 12.4775 43.2609C12.1697 42.4697 11.8004 41.2742 11.7036 39.0852C11.5981 36.7118 11.5717 35.9997 11.5717 29.9957C11.5717 23.9915 11.5981 23.2707 11.7036 20.9059C11.8004 18.7083 12.1697 17.5215 12.4775 16.7302C12.8821 15.6841 13.3745 14.9282 14.1572 14.1458C14.9487 13.3547 15.6962 12.8712 16.7427 12.458C17.5343 12.1503 18.7302 11.7811 20.9199 11.6844C23.2856 11.5789 23.9979 11.5526 30.0132 11.5526ZM30.0132 7.5C23.9012 7.5 23.1361 7.52637 20.7352 7.63187C18.3432 7.73735 16.6988 8.12415 15.2741 8.67796C13.7879 9.25815 12.5303 10.023 11.2815 11.28C10.0239 12.5283 9.25884 13.7854 8.67843 15.2622C8.12439 16.6951 7.73745 18.3303 7.63191 20.7213C7.52639 23.13 7.5 23.8948 7.5 30.0043C7.5 36.114 7.52639 36.8789 7.63191 39.2787C7.73745 41.6697 8.12439 43.3137 8.67843 44.7378C9.25884 46.2234 10.0239 47.4804 11.2815 48.7287C12.5303 49.977 13.7879 50.7507 15.2653 51.322C16.6987 51.8758 18.3345 52.2627 20.7266 52.3682C23.1273 52.4736 23.8924 52.5 30.0043 52.5C36.1164 52.5 36.8814 52.4736 39.2823 52.3682C41.6744 52.2627 43.3188 51.8758 44.7435 51.322C46.221 50.7507 47.4785 49.977 48.7274 48.7287C49.9761 47.4804 50.75 46.2234 51.3216 44.7465C51.8756 43.3137 52.2626 41.6786 52.3682 39.2874C52.4736 36.8876 52.5 36.1229 52.5 30.0132C52.5 23.9036 52.4736 23.1389 52.3682 20.7388C52.2626 18.3478 51.8756 16.704 51.3216 15.2799C50.7675 13.7854 50.0025 12.5283 48.7449 11.28C47.4962 10.0317 46.2386 9.25815 44.7611 8.68676C43.3277 8.13294 41.6919 7.74614 39.2999 7.64066C36.8902 7.52637 36.1251 7.5 30.0132 7.5Z" fill="white"/>
<path d="M30.0133 18.4446C23.6287 18.4446 18.4489 23.6223 18.4489 30.0045C18.4489 36.3865 23.6287 41.5644 30.0133 41.5644C36.3979 41.5644 41.5777 36.3865 41.5777 30.0045C41.5777 23.6223 36.3979 18.4446 30.0133 18.4446ZM30.0133 37.503C25.8712 37.503 22.5118 34.1449 22.5118 30.0045C22.5118 25.864 25.8712 22.5058 30.0133 22.5058C34.1554 22.5058 37.5148 25.864 37.5148 30.0045C37.5148 34.1449 34.1554 37.503 30.0133 37.503Z" fill="white"/>
<path d="M44.7348 17.9874C44.7348 19.478 43.5261 20.6861 42.0349 20.6861C40.5438 20.6861 39.3351 19.478 39.3351 17.9874C39.3351 16.4969 40.5438 15.2886 42.0349 15.2886C43.5261 15.2886 44.7348 16.4969 44.7348 17.9874Z" fill="white"/>
</svg>
