<svg width="60" height="60" viewBox="0 0 60 60" fill="none" xmlns="http://www.w3.org/2000/svg">
<path d="M0 30C0 13.4315 13.4315 0 30 0C46.5686 0 60 13.4315 60 30C60 46.5686 46.5686 60 30 60C13.4315 60 0 46.5686 0 30Z" fill="#0CCEAD"/>
<path d="M42.6448 13.1336L8.75712 26.9034C7.39342 27.5447 6.93219 28.829 8.42745 29.5259L17.1211 32.4369L38.1413 18.7484C39.289 17.8889 40.464 18.1181 39.453 19.0634L21.3995 36.2877L20.8323 43.577C21.3576 44.7024 22.3194 44.7077 22.9329 44.1483L27.9277 39.1683L36.4821 45.918C38.4688 47.1575 39.5499 46.3575 39.9774 44.0859L45.5883 16.0907C46.1709 13.2943 45.1773 12.0622 42.6448 13.1336Z" fill="white"/>
</svg>
