<svg width="60" height="60" viewBox="0 0 60 60" fill="none" xmlns="http://www.w3.org/2000/svg">
<path d="M30 60C46.5685 60 60 46.5685 60 30C60 13.4315 46.5685 0 30 0C13.4315 0 0 13.4315 0 30C0 46.5685 13.4315 60 30 60Z" fill="#0CCEAD"/>
<path fill-rule="evenodd" clip-rule="evenodd" d="M28.8668 43.1577H31.2214C31.2214 43.1577 31.9326 43.0796 32.2958 42.6881C32.63 42.3288 32.6193 41.6539 32.6193 41.6539C32.6193 41.6539 32.5733 38.4944 34.0397 38.0292C35.4852 37.5709 37.3414 41.0827 39.3088 42.4331C40.7966 43.455 41.9271 43.2309 41.9271 43.2309L47.1877 43.1577C47.1877 43.1577 49.9397 42.9882 48.6348 40.8244C48.5279 40.6474 47.8749 39.2239 44.7235 36.2986C41.425 33.237 41.8667 33.7322 45.8401 28.4363C48.26 25.2111 49.2274 23.242 48.9252 22.3987C48.637 21.5954 46.8572 21.8077 46.8572 21.8077L40.934 21.8446C40.934 21.8446 40.495 21.7847 40.1693 21.9794C39.8511 22.1703 39.6463 22.6152 39.6463 22.6152C39.6463 22.6152 38.7088 25.1111 37.4585 27.2336C34.821 31.7124 33.7664 31.9487 33.3354 31.6706C32.3327 31.0225 32.5829 29.0668 32.5829 27.6775C32.5829 23.3372 33.2412 21.5275 31.3011 21.059C30.6572 20.9034 30.1834 20.8007 28.5368 20.7842C26.4234 20.7622 24.6345 20.7906 23.6217 21.2869C22.9478 21.6168 22.428 22.3521 22.7446 22.3944C23.1361 22.4468 24.0227 22.6334 24.4928 23.2736C25.0998 24.0993 25.0784 25.9539 25.0784 25.9539C25.0784 25.9539 25.4271 31.0631 24.2639 31.6979C23.4655 32.1332 22.3703 31.2444 20.0188 27.1812C18.814 25.0998 17.9043 22.7992 17.9043 22.7992C17.9043 22.7992 17.7289 22.3692 17.4161 22.1393C17.0364 21.8607 16.5059 21.7719 16.5059 21.7719L10.8773 21.8088C10.8773 21.8088 10.0324 21.8323 9.72222 22.1997C9.44628 22.5265 9.7003 23.2024 9.7003 23.2024C9.7003 23.2024 14.1069 33.5119 19.0964 38.7073C23.6714 43.4705 28.8668 43.1577 28.8668 43.1577Z" fill="white"/>
</svg>
